<svg version="1.1" id="Layer_1" xmlns="http://www.w3.org/2000/svg" x="0" y="0" viewBox="0 0 100 100" xml:space="preserve"><style>.st0{fill:#662480}</style><path class="st0" d="M13.45 60.32c1.94-.27 3.11-.86 3.11-2.57V37.36c0-1.67-1.17-2.26-3.11-2.52v-1.26h8.44l9.25 19.26 8.75-19.26h8.35v1.26c-1.94.27-2.93.86-2.93 2.52v20.39c0 1.71.99 2.3 2.93 2.57v1.26H36.95v-1.26c1.94-.27 2.93-.86 2.93-2.57V38.17L30.32 59.1H28.7L18.55 38.03v19.71c0 1.71 1.17 2.3 3.11 2.57v1.26h-8.21v-1.25z"/><path class="st0" d="M76.73 58.02v-8.57c0-3.38-1.26-5.82-4.02-5.82-2.71 0-4.33 2.44-4.33 5.82v8.21c0 1.89.77 2.48 2.8 2.71v1.22H60.81v-1.22c2.08-.23 2.84-.81 2.84-2.71v-8.21c0-3.38-1.26-5.82-3.97-5.82s-4.37 2.44-4.37 5.82v8.21c0 1.89.77 2.48 2.84 2.71v1.22H47.69v-1.22c2.12-.23 2.89-.81 2.89-2.71V45.79c0-2.03-.68-2.71-2.89-2.48v-1.22l5.82-1.17c1.17-.23 1.81.32 1.81 1.4 0 1.63.59 2.12 1.22 1.44.81-.9 2.44-2.98 5.82-2.98 1.89 0 3.92.63 5.14 2.62.49.86 1.26 1.08 1.76.45 1.13-1.35 2.75-3.07 5.91-3.07 3.29 0 6.32 1.8 6.32 7.71v9.47c0 1.58.86 2.03 2.16 1.71v.68c-.59 1.04-1.98 1.49-3.29 1.49-2.09.01-3.63-1.16-3.63-3.82"/><path class="st0" d="M50 2.6C23.86 2.6 2.6 23.86 2.6 50c0 26.14 21.26 47.4 47.4 47.4S97.4 76.14 97.4 50C97.4 23.86 76.14 2.6 50 2.6m0 97.4C22.43 100 0 77.57 0 50S22.43 0 50 0s50 22.43 50 50-22.43 50-50 50"/></svg>