<?xml version="1.0" encoding="utf-8"?>
<!-- Generator: Adobe Illustrator 16.0.0, SVG Export Plug-In . SVG Version: 6.00 Build 0)  -->
<!DOCTYPE svg PUBLIC "-//W3C//DTD SVG 1.1//EN" "http://www.w3.org/Graphics/SVG/1.1/DTD/svg11.dtd">
<svg version="1.1" id="Layer_2" xmlns="http://www.w3.org/2000/svg" xmlns:xlink="http://www.w3.org/1999/xlink" x="0px" y="0px"
	 width="100%" height="100%" viewBox="0 333.384 2123.6 508.386" enable-background="new 0 333.384 2123.6 508.386"
	 xml:space="preserve">
<path fill="#F37596" d="M0,511.435l50.584,39.373c50.579,38.785,151.45,118.42,253.207,110.016
	c100.723-7.815,202.04-102.201,302.317-125.795c101.757-23.594,203.513,23.594,303.796,70.787
	c101.311,47.192,202.04,94.381,303.795,94.381c100.867,0,202.034-47.188,303.791-47.188c100.426,0,202.039,47.188,302.316,86.566
	c101.609,38.784,202.041,71.227,253.652,86.418l50.14,15.777V333.384h-50.579c-50.585,0-151.455,0-253.213,0
	c-100.722,0-202.034,0-302.316,0c-101.757,0-203.513,0-303.791,0c-101.315,0-202.04,0-303.795,0c-100.872,0-202.039,0-303.796,0
	c-100.426,0-202.034,0-302.317,0c-101.608,0-202.035,0-253.651,0H0V511.435z"/>
</svg>
