<svg xmlns="http://www.w3.org/2000/svg" viewBox="0 0 35.5 35.5"><path d="M28.2 1.95h-4.98C23.1.99 22.29.25 21.3.25h-7.08c-.99 0-1.8.74-1.92 1.7h-5c-.24 0-.44.2-.44.44v9.33H.69c-.13 0-.25.06-.34.16-.08.1-.12.23-.09.36L4.49 34.9c.04.21.22.36.43.36h25.66c.21 0 .39-.15.43-.36l4.23-22.66a.46.46 0 00-.09-.36.442.442 0 00-.34-.16h-6.18V2.39a.423.423 0 00-.43-.44zm-15.06.25c0-.59.48-1.07 1.07-1.07h7.08c.59 0 1.07.48 1.07 1.07v.37c0 .59-.48 1.07-1.07 1.07h-7.08c-.59 0-1.07-.48-1.07-1.07V2.2zm-5.4.62h4.55c.12.96.93 1.7 1.92 1.7h7.08c.99 0 1.8-.74 1.92-1.7h4.55v8.89H7.74V2.82zm9.57 9.77v21.79H9.49V12.59h7.82zm.88 0h7.82v21.79h-7.82V12.59zm-16.98 0h7.4v21.79H5.28L1.21 12.59zm29.01 21.79h-3.33V12.59h7.4l-4.07 21.79z" fill="#662480" stroke="#662480" stroke-width=".5" stroke-miterlimit="10"/></svg>