<svg xmlns="http://www.w3.org/2000/svg" viewBox="0 0 190 190"><path d="M189.81 46.63c-.09-.22-.2-.42-.35-.6-.03-.04-.05-.08-.09-.11-.15-.17-.32-.32-.52-.44-.05-.03-.09-.04-.14-.06a.265.265 0 01-.06-.05L96.04.24c-.65-.32-1.42-.32-2.08 0L1.33 45.37c-.02.01-.04.03-.06.05-.05.02-.09.04-.14.06-.2.12-.37.27-.52.44-.03.04-.05.08-.09.11-.15.18-.26.38-.35.6-.02.05-.05.1-.07.16-.05.23-.1.46-.1.71v92.63c0 .89.5 1.71 1.29 2.11l92.62 47.5c.03.02.07.01.1.02.32.14.65.24.99.24s.67-.1.99-.24c.03-.01.07-.01.1-.02l92.63-47.5c.79-.4 1.29-1.22 1.29-2.11V47.5c0-.25-.05-.48-.12-.71-.03-.06-.05-.11-.08-.16zM95 92.33L67.58 78.27l87.17-44.14 27.56 13.43L95 92.33zM37.71 68.29L60.54 80v36.56L37.7 104.63V68.29zm2.85-3.88l86.48-43.79 22.36 10.89-87.04 44.08-21.8-11.18zM95 5.02l26.68 13-86.34 43.71L7.69 47.55 95 5.02zM4.75 51.39l28.21 14.46v40.21c0 .89.49 1.7 1.28 2.1l27.59 14.41a2.384 2.384 0 002.33-.07 2.37 2.37 0 001.14-2.03V82.43l27.33 14.02v87.29L4.75 138.67V51.39zm180.5 87.28l-87.88 45.06V96.45l87.88-45.06v87.28z" fill="#662480"/></svg>