<svg version="1.1" id="Layer_1" xmlns="http://www.w3.org/2000/svg" x="0" y="0" viewBox="0 0 173.2 168.6" xml:space="preserve"><style>.st0{fill:#ff8161}.st1{fill:#662480}</style><circle class="st0" cx="32.6" cy="30.1" r="19.9"/><path class="st0" d="M24.3 65.3c10.9 0 19.9 8.8 19.9 19.9s-8.8 19.9-19.9 19.9S4.6 96.1 4.6 85s8.8-19.7 19.7-19.7z"/><circle class="st0" cx="108.5" cy="142.9" r="19.9"/><path class="st0" d="M143.8 85.6c10.9 0 19.9 8.8 19.9 19.9s-8.8 19.9-19.9 19.9c-11.1 0-19.7-9-19.7-19.9s8.8-19.9 19.7-19.9z"/><circle class="st0" cx="92.2" cy="24" r="19.9"/><circle transform="rotate(-45.001 29.553 156.017)" class="st1" cx="29.6" cy="156" r="3.6"/><path class="st1" d="M71 85.6c-.8.8-.8 2.1 0 2.9l6.5 6.5-7.5 7.5-.6-.6c-.8-.8-2.1-.8-2.9 0l-45.9 45.9c-4.6 4.6-4.6 12.4 0 17 2.3 2.3 5.2 3.6 8.6 3.6s6.3-1.3 8.6-3.6L83.6 119c.4-.4.6-.8.6-1.5 0-.6-.2-1-.6-1.5l89.3-89.3c.4-.4.6-1 .6-1.7s-.4-1.3-.8-1.5C170.4 21.9 148.2 8.7 71 85.6zm-36.5 76.3c-2.9 2.9-8.2 2.9-11.1 0-3.1-3.1-3.1-8 0-11.1l44.4-44.4L79 117.5l-44.5 44.4zm45.9-48.8l-7.5-7.5 9-9c.8-.8.8-2.1 0-2.9l-6.5-6.5c59.5-59.1 84.5-62.1 91.8-61l-86.8 86.9zM32.2 14.8c-2.1 0-3.6 1.7-3.6 3.6 0 2.3 2.7 5.7 2.9 5.9.2.2.4.2.6.2.2 0 .4 0 .6-.2.4-.4 3.1-3.4 3.1-5.9.2-2-1.5-3.6-3.6-3.6zM32.4 35.9c-.2 0-.4 0-.6.2-.4.4-3.1 3.4-3.1 5.9 0 1 .4 1.9 1 2.5.6.6 1.7 1 2.5 1 1.9 0 3.6-1.7 3.6-3.6 0-2.3-2.7-5.7-2.9-5.9 0-.1-.5-.1-.5-.1zM44.8 26.7c-2.3 0-5.7 2.7-5.9 2.9-.2.2-.2.4-.2.6 0 .2 0 .4.2.6.4.4 3.4 3.1 5.9 3.1 1.9 0 3.6-1.7 3.6-3.6 0-1-.4-1.9-1-2.5s-1.8-1.1-2.6-1.1zM20.5 34.1c2.3 0 5.7-2.7 5.9-2.9.2-.2.2-.4.2-.6 0-.2 0-.4-.2-.6-.4-.4-3.4-3.1-5.9-3.1-1 0-1.9.4-2.5 1-.6.6-1 1.7-1 2.5 0 1 .4 1.9 1 2.5.6.7 1.4 1.2 2.5 1.2zM37.3 26.5c.4 0 4.6-.2 6.5-1.9.6-.6 1-1.7 1-2.5 0-1-.4-1.9-1-2.5s-1.7-1-2.5-1c-1 0-1.9.4-2.5 1-1.7 1.7-2.1 5.9-2.1 6.3 0 .2 0 .4.2.6-.1-.2.1 0 .4 0zM27.8 34.1c-.4 0-4.6.2-6.3 1.9-1.5 1.5-1.5 3.8 0 5 .6.6 1.7 1 2.5 1 1 0 1.9-.4 2.5-1 1.7-1.7 2.1-5.9 2.1-6.3 0-.2 0-.4-.2-.6h-.6zM37.3 34.5c-.2 0-.4 0-.6.2-.2.2-.2.4-.2.6 0 .4.2 4.6 1.9 6.3.6.6 1.7 1 2.5 1 1 0 1.9-.4 2.5-1 1.5-1.5 1.5-3.8 0-5-1.5-1.7-5.7-2.1-6.1-2.1zM27.6 26.5c.2 0 .4 0 .6-.2.2-.2.2-.4.2-.6 0-.4-.2-4.6-1.9-6.3-.6-.6-1.7-1-2.5-1-1 0-1.9.4-2.5 1-.6.6-1 1.7-1 2.5 0 1 .4 1.9 1 2.5 1.5 1.7 5.7 2.1 6.1 2.1z"/><path class="st1" d="M32.6 6C19.4 6 8.5 16.7 8.5 30.1s10.7 24.1 24.1 24.1 24.1-10.7 24.1-24.1S45.9 6 32.6 6zm0 44c-10.9 0-19.9-8.8-19.9-19.9s8.8-19.9 19.9-19.9 20 8.8 20 19.9S43.5 50 32.6 50zM24 79.5c.2 0 .4 0 .6-.2.4-.4 3.1-3.4 3.1-5.9 0-2.1-1.7-3.6-3.6-3.6-1.9 0-3.6 1.7-3.6 3.6 0 2.3 2.7 5.7 2.9 5.9.2.2.4.2.6.2zM24 100.7c2.1 0 3.6-1.7 3.6-3.6 0-2.3-2.7-5.7-2.9-5.9-.2-.2-.4-.2-.6-.2-.2 0-.4 0-.6.2-.4.4-3.1 3.4-3.1 5.9 0 1 .4 1.9 1 2.5.8.7 1.6 1.1 2.6 1.1zM30.3 85.4c0 .2 0 .4.2.6.4.4 3.4 3.1 5.9 3.1 1 0 1.9-.4 2.5-1 .6-.6 1-1.7 1-2.5s-.4-1.9-1-2.5c-.6-.6-1.7-1-2.5-1-2.3 0-5.7 2.7-5.9 2.9-.2 0-.2.2-.2.4zM12.1 89c2.3 0 5.7-2.7 5.9-2.9.2-.2.2-.4.2-.6s0-.4-.2-.6c-.4-.4-3.4-3.1-5.9-3.1-1.9 0-3.6 1.7-3.6 3.6 0 1 .4 1.9 1 2.5.7.7 1.8 1.1 2.6 1.1zM29.1 81.4c.4 0 4.6-.2 6.5-1.9.6-.6 1-1.7 1-2.5 0-1-.4-1.9-1-2.5-.6-.6-1.7-1-2.5-1-1 0-1.9.4-2.5 1-1.7 1.7-2.1 5.9-2.1 6.3 0 .2 0 .4.2.6 0-.2.2 0 .4 0zM19.6 89c-.4 0-4.6.2-6.3 1.9-.6.6-1 1.7-1 2.5 0 1 .4 1.9 1 2.5.6.6 1.7 1 2.5 1s1.9-.4 2.5-1c1.7-1.7 2.1-5.9 2.1-6.3 0-.2 0-.4-.2-.6h-.6zM29.1 89.4c-.2 0-.4 0-.6.2-.2.2-.2.4-.2.6 0 .4.2 4.6 1.9 6.3.6.6 1.7 1 2.5 1 1 0 1.9-.4 2.5-1 .6-.6 1-1.7 1-2.5s-.4-1.9-1-2.5c-1.5-1.7-5.7-2.1-6.1-2.1zM19.4 81.4c.2 0 .4 0 .6-.2.2-.2.2-.4.2-.6 0-.4-.2-4.6-1.9-6.3-1.5-1.5-3.8-1.5-5 0-1.3 1.5-1.5 3.8 0 5 1.5 1.9 5.7 2.1 6.1 2.1z"/><path class="st1" d="M24.3 109.1c13.2 0 24.1-10.7 24.1-24.1S37.7 61.1 24.3 61.1.4 71.8.4 85s10.6 24.1 23.9 24.1zm0-43.8c10.9 0 19.9 8.8 19.9 19.9s-8.8 19.9-19.9 19.9S4.6 96.1 4.6 85s8.8-19.7 19.7-19.7zM143.5 100.1c.2 0 .4 0 .6-.2.4-.4 3.1-3.4 3.1-5.9 0-1-.4-1.9-1-2.5-.6-.6-1.7-1-2.5-1-1.9 0-3.6 1.7-3.6 3.6 0 2.3 2.7 5.7 2.9 5.9.1-.1.3-.1.5.1zM143.5 121.1c2.1 0 3.6-1.7 3.6-3.6 0-2.3-2.7-5.7-2.9-5.9-.2-.2-.4-.2-.6-.2-.2 0-.4 0-.6.2-.4.4-3.1 3.4-3.1 5.9.1 1.9 1.8 3.6 3.6 3.6zM149.8 105.8c0 .2 0 .4.2.6.4.4 3.4 3.1 5.9 3.1 1.9 0 3.6-1.7 3.6-3.6 0-1-.4-1.9-1-2.5-.6-.6-1.7-1-2.5-1-2.3 0-5.7 2.7-5.9 2.9-.3 0-.3.2-.3.5zM131.6 109.3c2.3 0 5.7-2.7 5.9-2.9.2-.2.2-.4.2-.6 0-.2 0-.4-.2-.6-.4-.4-3.4-3.1-5.9-3.1-1.9 0-3.6 1.7-3.6 3.6 0 2.2 1.7 3.6 3.6 3.6zM148.6 101.8c.4 0 4.6-.2 6.5-1.9.6-.6 1-1.7 1-2.5 0-1-.4-1.9-1-2.5-.6-.6-1.7-1-2.5-1-1 0-1.9.4-2.5 1-1.7 1.7-2.1 5.9-2.1 6.3 0 .2 0 .4.2.6h.4zM139.1 109.3c-.4 0-4.6.2-6.3 1.9-.6.6-1 1.7-1 2.5 0 1 .4 1.9 1 2.5.6.6 1.7 1 2.5 1s1.9-.4 2.5-1c1.7-1.7 2.1-5.9 2.1-6.3 0-.2 0-.4-.2-.6-.1.2-.3 0-.6 0zM148.6 109.9c-.2 0-.4 0-.6.2-.2.2-.2.4-.2.6 0 .4.2 4.6 1.9 6.3.6.6 1.7 1 2.5 1s1.9-.4 2.5-1c.6-.6 1-1.7 1-2.5 0-1-.4-1.9-1-2.5-1.5-1.8-5.7-2.1-6.1-2.1zM138.9 102c.2 0 .4 0 .6-.2.2-.2.2-.4.2-.6 0-.4-.2-4.6-1.9-6.3-.6-.6-1.7-1-2.5-1-1 0-1.9.4-2.5 1-.6.6-1 1.7-1 2.5 0 1 .4 1.9 1 2.5 1.5 1.7 5.7 1.9 6.1 2.1z"/><path class="st1" d="M143.8 129.4c13.2 0 24.1-10.7 24.1-24.1s-10.7-24.1-24.1-24.1-23.9 10.9-23.9 24.3c0 13.5 10.6 23.9 23.9 23.9zm0-43.8c10.9 0 19.9 8.8 19.9 19.9s-8.8 19.9-19.9 19.9c-11.1 0-19.7-9-19.7-19.9s8.8-19.9 19.7-19.9zM108.3 127.6c-1.9 0-3.6 1.7-3.6 3.6 0 2.3 2.7 5.7 2.9 5.9.2.2.4.2.6.2.2 0 .4 0 .6-.2.4-.4 3.1-3.4 3.1-5.9 0-2-1.5-3.6-3.6-3.6zM108.3 148.7c-.2 0-.4 0-.6.2-.4.4-3.1 3.4-3.1 5.9 0 1 .4 1.9 1 2.5.6.6 1.7 1 2.5 1 1.9 0 3.6-1.7 3.6-3.6 0-2.3-2.7-5.7-2.9-5.9-.1-.1-.3-.1-.5-.1zM114.6 143.1c0 .2 0 .4.2.6.4.4 3.4 3.1 5.9 3.1 1.9 0 3.6-1.7 3.6-3.6 0-2.1-1.7-3.6-3.6-3.6-2.3 0-5.7 2.7-5.9 2.9-.2.2-.2.4-.2.6zM96.4 146.8c2.3 0 5.7-2.7 5.9-2.9s.2-.4.2-.6c0-.2 0-.4-.2-.6-.4-.4-3.4-3.1-5.9-3.1-1.9 0-3.6 1.7-3.6 3.6 0 1 .4 1.9 1 2.5.7.7 1.7 1.1 2.6 1.1zM113.1 139.1c.3 0 .3 0 0 0 .4 0 4.6-.2 6.5-1.9.6-.6 1-1.7 1-2.5 0-1-.4-1.9-1-2.5-.6-.6-1.7-1-2.5-1-1 0-1.9.4-2.5 1-1.7 1.7-2.1 5.9-2.1 6.3 0 .2 0 .4.2.6h.4zM103.9 146.8c-.4 0-4.6.2-6.3 1.9-.6.6-1 1.7-1 2.5 0 1 .4 1.9 1 2.5.6.6 1.7 1 2.5 1 1 0 1.9-.4 2.5-1 1.7-1.7 2.1-5.9 2.1-6.3 0-.2 0-.4-.2-.6h-.6zM113.4 147.3c-.2 0-.4 0-.6.2s-.2.4-.2.6c0 .4.2 4.6 1.9 6.3.6.6 1.7 1 2.5 1 1 0 1.9-.4 2.5-1 .6-.6 1-1.7 1-2.5 0-1-.4-1.9-1-2.5-1.5-1.7-5.7-2.1-6.1-2.1zM103.7 139.3c.2 0 .4 0 .6-.2.2-.2.2-.4.2-.6 0-.4-.2-4.6-1.9-6.3-.6-.6-1.7-1-2.5-1-1 0-1.9.4-2.5 1-1.5 1.5-1.5 3.8 0 5 1.5 1.7 5.7 2.1 6.1 2.1z"/><path class="st1" d="M84.6 142.9c0 13.2 10.7 24.1 24.1 24.1s23.9-10.9 23.9-24.1c0-13.2-10.7-24.1-24.1-24.1s-23.9 10.9-23.9 24.1zm43.9 0c0 10.9-8.8 19.9-19.9 19.9s-19.9-8.8-19.9-19.9c0-11.1 8.8-19.9 19.9-19.9 11-.1 19.9 9 19.9 19.9zM91.8 18.3c.2 0 .4 0 .6-.2.4-.4 3.1-3.4 3.1-5.9 0-2.1-1.7-3.6-3.6-3.6-1.9 0-3.6 1.7-3.6 3.6 0 2.3 2.7 5.7 2.9 5.9.1.2.6.2.6.2zM91.8 39.5c.2 0 .2 0 0 0 2.1 0 3.6-1.7 3.6-3.6 0-2.3-2.7-5.7-2.9-5.9-.2-.2-.4-.2-.6-.2-.2 0-.4 0-.6.2-.4.4-3.1 3.4-3.1 5.9 0 1 .4 1.9 1 2.5.9.7 1.7 1.1 2.6 1.1zM98.1 24.2c0 .2 0 .4.2.6.4.4 3.4 3.1 5.9 3.1 1 0 1.9-.4 2.5-1 .6-.6 1-1.7 1-2.5 0-2.1-1.7-3.6-3.6-3.6-2.5 0-5.7 2.7-5.9 2.9.1.1-.1.3-.1.5zM80 27.8c2.3 0 5.7-2.7 5.9-2.9s.2-.4.2-.6c0-.2 0-.4-.2-.6-.4-.4-3.4-3.1-5.9-3.1-1.9 0-3.6 1.7-3.6 3.6 0 1 .4 1.9 1 2.5.7.6 1.6 1.1 2.6 1.1zM96.8 20.2c.4 0 4.6-.2 6.5-1.9.6-.6 1-1.7 1-2.5 0-1-.4-1.9-1-2.5-1.5-1.5-3.8-1.5-5 0-1.7 1.7-2.1 5.9-2.1 6.3 0 .2 0 .4.2.6h.4zM87.4 27.8c-.4 0-4.6.2-6.3 1.9-.6.6-1 1.7-1 2.5 0 1 .4 1.9 1 2.5.6.6 1.7 1 2.5 1s1.9-.4 2.5-1c1.7-1.7 2.1-5.9 2.1-6.3 0-.2 0-.4-.2-.6h-.6zM96.8 28.2c-.2 0-.4 0-.6.2-.2.2-.2.4-.2.6 0 .4.2 4.6 1.9 6.3.6.6 1.7 1 2.5 1 1 0 1.9-.4 2.5-1 .6-.6 1-1.7 1-2.5 0-1-.4-1.9-1-2.5-1.3-1.7-5.5-1.9-6.1-2.1zM87.2 20.2s.2 0 0 0c.2 0 .4 0 .6-.2s.2-.4.2-.6c0-.4-.2-4.6-1.9-6.3-.6-.6-1.7-1-2.5-1-1 0-1.9.4-2.5 1-1.5 1.5-1.5 3.8 0 5 1.4 1.9 5.6 2.1 6.1 2.1z"/><path class="st1" d="M92.2 47.9c13.2 0 24.1-10.7 24.1-24.1S105.4-.1 92.2-.1 68.1 10.6 68.1 24 79 47.9 92.2 47.9zm0-43.8c10.9 0 19.9 8.8 19.9 19.9 0 10.9-8.8 19.9-19.9 19.9S72.3 35.1 72.3 24s9-19.9 19.9-19.9z"/></svg>