<svg version="1.1" id="Layer_1" xmlns="http://www.w3.org/2000/svg" x="0" y="0" viewBox="0 0 68 83" xml:space="preserve"><style>.st0{fill:#96d3a0}.st2{fill:#662480}</style><circle class="st0" cx="34" cy="48.74" r="34"/><path class="st0" d="M30.98 14.68c-.02-.45 0-.9.06-1.35.43-3.29 2.87-5.96 5.97-6.52.01 0 .98-.25 2.26 0 3.59.72 6.01 3.76 6.01 7.56 0 .17-.01.34-.02.5-.09 1.44.32 2.82 1.15 3.89 1.84 2.36 2.7 5.36 2.44 8.45-.48 5.58-4.79 10.06-10.04 10.41-3.04.2-5.91-.91-8.1-3.14.74-1.11 1.36-2.4 1.78-3.82.75-2.54.74-4.89-.05-6.81-.7-1.69-1.97-2.94-3.61-3.55.23-.42.48-.82.75-1.2.96-1.33 1.45-2.89 1.4-4.42z"/><path d="M13.01 24.22c.64-1.57 1.86-2.68 3.42-3.15 1.94-.57 3.95 0 5.52 1.57.09.09.21.14.34.14.13 0 .25-.05.34-.14 1.57-1.57 3.58-2.14 5.52-1.57 1.56.46 2.77 1.58 3.42 3.15.7 1.71.71 3.85.02 6.17-1.44 4.84-5.16 8.02-8.31 7.09a3.84 3.84 0 01-.76-.32.465.465 0 00-.46 0c-.25.13-.5.24-.76.32-3.14.93-6.87-2.25-8.31-7.09-.69-2.33-.69-4.46.02-6.17z" fill="#ff8061"/><path class="st2" d="M21.57 38.4c.24-.07.48-.16.71-.28.23.11.47.2.71.28.45.13.91.2 1.37.2 2.04 0 4.14-1.25 5.78-3.32 2.17 2.14 5.04 3.33 8 3.33.24 0 .49-.01.74-.02 5.71-.38 10.41-5.23 10.93-11.28.28-3.33-.65-6.56-2.64-9.12-.69-.89-1.03-2.04-.95-3.24.01-.19.02-.37.02-.56 0-3.17-1.51-5.87-3.94-7.39.65-.09 1.3-.29 1.9-.65 2.4-1.49 2.86-4.95 2.88-5.1a.47.47 0 00-.32-.51c-.14-.05-3.45-1.19-5.85.29-1.2.72-1.91 1.93-2.38 3.09-.45-2.09-1.46-3.57-1.52-3.65a.48.48 0 10-.79.55c.02.02 1.44 2.11 1.55 4.73-.59.03-.97.12-.98.13-3.47.62-6.23 3.64-6.71 7.33-.07.5-.09 1.01-.07 1.51.05 1.31-.38 2.67-1.21 3.82-.34.47-.64.97-.92 1.49-1.79-.37-3.6.06-5.13 1.23v-2.3c.92.08 3.15.12 4.49-1.21 1.68-1.68 1.19-4.77 1.16-4.9a.467.467 0 00-.39-.39c-.13-.02-3.22-.51-4.9 1.16-.87.87-1.16 2.11-1.26 3.24-.25-.6-.56-1.22-.96-1.81a.483.483 0 00-.8.54c1.39 2.07 1.68 4.64 1.7 4.82v.85c-1.68-1.28-3.7-1.68-5.65-1.1-1.84.55-3.27 1.86-4.03 3.7-.79 1.92-.8 4.27-.05 6.81 1.6 5.34 5.86 8.81 9.51 7.73zm2.22-24.11c1.04-1.04 2.93-1 3.71-.94.07.78.11 2.67-.94 3.71-1.08 1.08-3.09 1-3.8.93.02-1.19.12-2.79 1.03-3.7zM41.4 1.83c1.58-.98 3.76-.55 4.64-.32-.18.89-.78 3.03-2.36 4.01-1.56.96-3.78.48-4.71.21.42-1.33 1.07-3.06 2.43-3.9zM30.98 14.68c-.02-.45 0-.9.06-1.35.43-3.29 2.87-5.96 5.97-6.52.01 0 .98-.25 2.26 0 3.59.72 6.01 3.76 6.01 7.56 0 .17-.01.34-.02.5-.09 1.44.32 2.82 1.15 3.89 1.84 2.36 2.7 5.36 2.44 8.45-.48 5.58-4.79 10.06-10.04 10.41-3.04.2-5.91-.91-8.1-3.14.74-1.11 1.36-2.4 1.78-3.82.75-2.54.74-4.89-.05-6.81-.7-1.69-1.97-2.94-3.61-3.55.23-.42.48-.82.75-1.2.96-1.33 1.45-2.89 1.4-4.42zm-17.97 9.54c.64-1.57 1.86-2.68 3.42-3.15 1.94-.57 3.95 0 5.52 1.57.09.09.21.14.34.14.13 0 .25-.05.34-.14 1.57-1.57 3.58-2.14 5.52-1.57 1.56.46 2.77 1.58 3.42 3.15.7 1.71.71 3.85.02 6.17-1.44 4.84-5.16 8.02-8.31 7.09a3.84 3.84 0 01-.76-.32.465.465 0 00-.46 0c-.25.13-.5.24-.76.32-3.14.93-6.87-2.25-8.31-7.09-.69-2.33-.69-4.46.02-6.17z"/><path class="st2" d="M26.47 24.69c.62.18 1.11.57 1.41 1.14.43.8.47 1.89.12 3.07-.08.25.07.52.32.6.05.01.09.02.14.02.21 0 .4-.13.46-.34.43-1.43.36-2.78-.19-3.8-.43-.8-1.12-1.35-1.99-1.6a.476.476 0 00-.59.33c-.08.24.07.51.32.58zM39.54 10.76c1.1.69 1.86 1.89 2.03 3.21.03.24.24.42.47.42h.06c.26-.03.45-.27.41-.54-.21-1.61-1.13-3.07-2.47-3.9a.483.483 0 00-.66.15c-.13.22-.07.52.16.66z"/></svg>