<svg version="1.1" id="Layer_1" xmlns="http://www.w3.org/2000/svg" x="0" y="0" viewBox="0 0 240 240" xml:space="preserve"><style>.st0{fill:#96d3a0}.st1{fill:#662480}</style><circle class="st0" cx="120" cy="120" r="120"/><path class="st1" d="M60.75 120.28c1.64-.29 2.46-.57 2.46-2.09V98.65c0-1.52-.82-1.8-2.46-2.09v-.86h8.68v.86c-1.64.29-2.5.57-2.5 2.09v19.54c0 1.27.61 2.01 2.33 1.97l5.9-.33c2.54-.12 3.73-1.23 4.51-2.54l.7-1.23h.9l-.82 2.58c-.29.82-.49 1.56-.41 2.5H60.75v-.86zM82.49 111.88c0-5.9 4.38-9.58 9.5-9.58 4.96 0 9.34 3.56 9.34 9.46s-4.38 9.63-9.46 9.63c-4.99 0-9.38-3.61-9.38-9.51zm15.32 1.4c0-5.28-2.79-9.83-6.88-9.83-2.83 0-4.87 2.25-4.87 6.92 0 5.32 2.74 9.87 6.84 9.87 2.82 0 4.91-2.25 4.91-6.96zM102.73 126.75c0-1.23.94-2.01 2.09-2.01 2.33 0 .94 3.03 2.62 3.03.98 0 1.84-1.47 2.46-3.03.9-2.29.33-4.05-.16-5.36l-4.91-12.08c-1.06-2.62-1.52-3.11-3.28-3.77v-.86h8.15v.86c-2.25.66-2.42 1.11-1.31 3.77l3.65 8.97c.53 1.19.9 1.19 1.43-.04l1.8-4.67c2.79-6.92 2.01-7.37-.37-8.03v-.86h7.25v.86c-2.33.66-2.99 1.19-4.01 3.77l-6.88 17c-1.19 2.91-2.21 4.96-5.24 4.96-2.07-.01-3.29-1.07-3.29-2.51zM121.32 116.88c0-3.15 2.5-5.57 11.63-6.64.61-.04.98-.29.98-1.11v-.98c0-2.87-1.35-4.79-4.46-4.79-2.38 0-3.44 1.06-3.44 2.99 0 1.43-.7 2.13-1.8 2.13-1.11 0-1.68-.78-1.68-1.88 0-3.11 4.14-4.3 7.99-4.3 4.87 0 6.68 2.17 6.68 6.72v9.38c0 1.43.9 1.6 2.09 1.39v.49c-.49.66-1.64 1.11-2.74 1.11-1.47 0-2.58-.9-2.66-2.99.04-.37-.29-.37-.57 0-1.52 1.84-4.1 2.99-6.68 2.99-2.76 0-5.34-1.31-5.34-4.51zm12.61-2.29v-1.88c0-.94-.25-1.56-1.64-1.39-6.1.74-7.45 2.87-7.45 4.83 0 1.8 1.15 3.36 3.73 3.36 2.91-.01 5.36-2.1 5.36-4.92zM141.71 118.48V98.45c0-1.8-.37-2.54-2.66-2.33v-.82l4.51-.98c.9-.2 1.43.2 1.43 1.15v22.94c0 1.43.9 1.6 2.09 1.39v.49c-.45.66-1.6 1.11-2.74 1.11-1.52-.01-2.63-.83-2.63-2.92zM150.07 116.51v-11.35c0-1.06-.33-1.27-.9-1.27h-1.93V103c2.25-.86 3.6-2.13 4.83-4.3.12-.25.33-.33.53-.33h.37c.25 0 .41.16.41.41l-.04 2.83c0 .82.29 1.06 2.05 1.06h3.15v1.47l-3.15-.16c-1.76-.08-2.05.25-2.05 1.27v10.81c0 2.42.49 3.93 2.54 3.93.9 0 1.6-.29 2.29-.74l.37.57c-.78.82-1.8 1.51-3.73 1.51-2.73.02-4.74-1.42-4.74-4.82zM160.55 126.75c0-1.23.94-2.01 2.09-2.01 2.33 0 .94 3.03 2.62 3.03.98 0 1.84-1.47 2.46-3.03.9-2.29.33-4.05-.16-5.36l-4.91-12.08c-1.07-2.62-1.52-3.11-3.28-3.77v-.86h8.15v.86c-2.25.66-2.42 1.11-1.31 3.77l3.65 8.97c.53 1.19.9 1.19 1.43-.04l1.8-4.67c2.79-6.92 2.01-7.37-.37-8.03v-.86h7.25v.86c-2.34.66-2.99 1.19-4.01 3.77l-6.88 17c-1.19 2.91-2.21 4.96-5.24 4.96-2.06-.01-3.29-1.07-3.29-2.51zM59.05 155.38c-.94-1.88-1.06-4.18.29-4.18.41 0 .7.25.9.82 1.02 2.83 2.7 4.18 5.53 4.18 2.58 0 3.93-1.19 3.93-3.07 0-2.66-2.54-3.28-5.08-4.18-2.95-1.02-5.9-2.42-5.9-5.61 0-3.19 2.83-5.2 7.04-5.2 2.33 0 4.34.66 5.65 1.56.9 1.88 1.02 4.14-.33 4.14-.41 0-.66-.25-.86-.82-.98-2.74-2.7-3.89-5-3.89-2.21 0-3.44 1.06-3.44 2.87 0 2.33 1.8 3.24 4.3 4.14 2.99 1.02 6.92 2.05 6.92 5.61 0 3.36-3.24 5.49-7.78 5.49-2.69-.02-4.9-.75-6.17-1.86zM74.65 147.72c0-6.14 4.71-9.58 9.95-9.58 4.51 0 7.05 2.62 7.05 4.79 0 1.15-.74 1.97-1.84 1.97-.94 0-1.68-.53-1.8-1.8-.2-1.8-1.27-3.85-4.3-3.85-3.44 0-5.69 2.62-5.69 7.09 0 5.45 3.73 8.64 8.23 8.64 1.8 0 3.64-.53 5-2.62l.7.57c-.7 1.72-3.28 4.3-7.62 4.3-5.17-.01-9.68-3.53-9.68-9.51zM108.24 154.31v-8.44c0-3.36-1.64-5.69-4.63-5.69s-4.96 2.33-4.96 5.69v8.07c0 1.47.7 1.97 2.66 2.17v.86h-8.56v-.86c1.93-.2 2.62-.7 2.62-2.17v-19.66c0-1.8-.37-2.54-2.66-2.33v-.82l4.51-.98c.9-.2 1.43.2 1.43 1.15v8.15c0 1.56.37 2.09.94 1.52.61-.57 2.38-2.83 5.94-2.83 3.07 0 5.98 1.88 5.98 6.8v9.3c0 1.43.9 1.6 2.09 1.39v.49c-.49.66-1.64 1.11-2.74 1.11-1.52-.01-2.62-.83-2.62-2.92zM114.38 147.64c0-6.06 4.34-9.5 9.5-9.5 4.18 0 6.72 2.25 6.72 5.32 0 2.7-2.01 3.69-7.82 3.93l-3.65.16c-1.02.04-1.19.66-1.02 1.72.57 3.6 3.77 5.73 7.41 5.73 1.8 0 3.73-.53 5.12-2.33l.66.53c-.78 1.43-3.15 4.01-7.5 4.01-5.12.01-9.42-3.63-9.42-9.57zm7.82-1.15c3.89-.12 5.04-.78 5.04-2.99 0-2.29-1.19-4.26-4.1-4.26-3.11 0-4.87 2.17-5.24 5.45-.16 1.68.29 1.88 1.31 1.84l2.99-.04zM158.49 154.31v-8.44c0-3.36-1.27-5.69-4.01-5.69-2.66 0-4.34 2.33-4.34 5.69v8.07c0 1.47.7 1.97 2.42 2.17v.86h-8.4v-.86c2.01-.2 2.7-.7 2.7-2.17v-8.07c0-3.36-1.27-5.69-4.01-5.69-2.66 0-4.38 2.33-4.38 5.69v8.07c0 1.47.7 1.97 2.66 2.17v.86h-8.56v-.86c1.92-.2 2.62-.7 2.62-2.17v-11.51c0-1.8-.37-2.58-2.66-2.33v-.86l4.5-1.02c.9-.2 1.43.21 1.43 1.23 0 1.56.33 2.13.9 1.52.53-.61 1.88-2.83 5.16-2.83 1.88 0 3.6.78 4.67 2.58.45.78 1.06 1.02 1.6.33.53-.74 1.92-2.91 5.28-2.91 3.11 0 5.69 1.88 5.69 6.68v9.42c0 1.43.9 1.6 2.09 1.39v.49c-.49.66-1.64 1.11-2.74 1.11-1.52-.01-2.62-.83-2.62-2.92zM164.63 147.64c0-6.06 4.34-9.5 9.5-9.5 4.18 0 6.72 2.25 6.72 5.32 0 2.7-2.01 3.69-7.82 3.93l-3.65.16c-1.02.04-1.19.66-1.02 1.72.57 3.6 3.77 5.73 7.41 5.73 1.8 0 3.73-.53 5.12-2.33l.66.53c-.78 1.43-3.15 4.01-7.5 4.01-5.12.01-9.42-3.63-9.42-9.57zm7.82-1.15c3.89-.12 5.04-.78 5.04-2.99 0-2.29-1.19-4.26-4.1-4.26-3.11 0-4.87 2.17-5.24 5.45-.16 1.68.29 1.88 1.31 1.84l2.99-.04z"/><g><path class="st0" d="M114.04 42.91c-.03-.88.01-1.78.12-2.67.84-6.48 5.65-11.76 11.77-12.86.02-.01 1.94-.5 4.46.01 7.09 1.42 11.85 7.42 11.85 14.91 0 .33-.01.67-.03.99-.18 2.83.63 5.56 2.27 7.67 3.62 4.66 5.33 10.57 4.81 16.65-.94 11.01-9.45 19.84-19.79 20.53-5.99.4-11.65-1.8-15.97-6.18 1.46-2.18 2.67-4.73 3.51-7.54 1.49-5 1.45-9.65-.1-13.43-1.37-3.34-3.89-5.79-7.12-7 .45-.82.94-1.62 1.48-2.37 1.88-2.61 2.85-5.7 2.74-8.71z"/><path d="M78.6 61.71c1.27-3.09 3.66-5.29 6.74-6.2 3.82-1.13 7.79-.01 10.88 3.09.18.18.42.28.67.28s.49-.1.67-.28c3.1-3.1 7.07-4.22 10.88-3.09 3.08.91 5.47 3.12 6.74 6.2 1.39 3.38 1.4 7.59.04 12.17-2.83 9.55-10.18 15.82-16.38 13.98a7.16 7.16 0 01-1.49-.63c-.14-.08-.3-.12-.45-.12s-.31.04-.45.12c-.48.26-.99.48-1.49.63-6.2 1.84-13.55-4.43-16.38-13.98-1.38-4.58-1.36-8.79.02-12.17z" fill="#ff8061"/><path class="st1" d="M95.48 89.67c.48-.14.95-.32 1.41-.55.46.22.93.4 1.41.55a9.6 9.6 0 002.71.39c4.03 0 8.17-2.47 11.39-6.55 4.28 4.22 9.93 6.57 15.77 6.57.48 0 .97-.02 1.45-.05 11.26-.75 20.52-10.32 21.55-22.25.56-6.56-1.29-12.94-5.2-17.98-1.36-1.75-2.02-4.02-1.87-6.39.02-.37.03-.74.03-1.11 0-6.26-2.97-11.58-7.78-14.57 1.28-.18 2.57-.56 3.74-1.29 4.74-2.93 5.63-9.77 5.67-10.06.05-.44-.2-.86-.62-1.01-.28-.1-6.8-2.35-11.53.58-2.34 1.45-3.73 3.83-4.67 6.12-.89-4.12-2.88-7.04-2.99-7.2a.948.948 0 10-1.56 1.08c.03.04 2.84 4.16 3.06 9.32-1.17.06-1.92.24-1.93.25-6.85 1.22-12.29 7.17-13.24 14.46-.13.99-.17 2-.14 2.99.1 2.59-.75 5.26-2.39 7.53-.67.93-1.27 1.91-1.81 2.93-3.53-.73-7.09.13-10.12 2.42v-4.53c1.82.16 6.21.23 8.84-2.39 3.31-3.31 2.34-9.41 2.3-9.67a.957.957 0 00-.78-.78c-.26-.04-6.36-1.01-9.67 2.3-1.72 1.72-2.28 4.15-2.48 6.39-.49-1.18-1.11-2.4-1.89-3.56a.948.948 0 00-1.31-.26c-.43.29-.55.88-.26 1.31 2.74 4.08 3.31 9.14 3.35 9.51v1.68c-3.32-2.51-7.29-3.31-11.14-2.16-3.64 1.08-6.46 3.67-7.95 7.3-1.55 3.78-1.59 8.43-.1 13.43 3.15 10.55 11.55 17.39 18.75 15.25zm4.39-47.54c2.05-2.05 5.78-1.98 7.33-1.85.13 1.54.21 5.26-1.85 7.32-2.13 2.13-6.09 1.97-7.5 1.83.03-2.35.22-5.5 2.02-7.3zm34.72-24.56c3.11-1.92 7.42-1.09 9.15-.63-.36 1.75-1.54 5.98-4.65 7.9-3.07 1.9-7.47.94-9.29.41.83-2.61 2.11-6.02 4.79-7.68zm-20.55 25.34c-.03-.88.01-1.78.12-2.67.84-6.48 5.65-11.76 11.77-12.86.02-.01 1.94-.5 4.46.01 7.09 1.42 11.85 7.42 11.85 14.91 0 .33-.01.67-.03.99-.18 2.83.63 5.56 2.27 7.67 3.62 4.66 5.33 10.57 4.81 16.65-.94 11.01-9.45 19.84-19.79 20.53-5.99.4-11.65-1.8-15.97-6.18 1.46-2.18 2.67-4.73 3.51-7.54 1.49-5 1.45-9.65-.1-13.43-1.37-3.34-3.89-5.79-7.12-7 .45-.82.94-1.62 1.48-2.37 1.88-2.61 2.85-5.7 2.74-8.71zM78.6 61.71c1.27-3.09 3.66-5.29 6.74-6.2 3.82-1.13 7.79-.01 10.88 3.09.18.18.42.28.67.28s.49-.1.67-.28c3.1-3.1 7.07-4.22 10.88-3.09 3.08.91 5.47 3.12 6.74 6.2 1.39 3.38 1.4 7.59.04 12.17-2.83 9.55-10.18 15.82-16.38 13.98a7.16 7.16 0 01-1.49-.63c-.14-.08-.3-.12-.45-.12s-.31.04-.45.12c-.48.26-.99.48-1.49.63-6.2 1.84-13.55-4.43-16.38-13.98-1.38-4.58-1.36-8.79.02-12.17z"/><path class="st1" d="M105.16 62.65c1.22.35 2.18 1.13 2.78 2.25.85 1.57.94 3.72.23 6.05a.946.946 0 00.9 1.22c.41 0 .78-.26.9-.67.85-2.82.72-5.48-.38-7.5-.85-1.57-2.21-2.66-3.92-3.16a.937.937 0 00-1.17.64c-.13.49.16 1.02.66 1.17zM130.92 35.17c2.17 1.35 3.66 3.72 4 6.34.06.48.47.82.94.82.04 0 .08 0 .12-.01.52-.07.88-.54.82-1.06-.41-3.17-2.23-6.05-4.87-7.7a.94.94 0 00-1.3.3.941.941 0 00.29 1.31z"/></g><g><circle cx="163.43" cy="192.51" r="19.11" fill="#9380be"/><path fill="none" stroke="#fff" stroke-width="3" stroke-linecap="round" stroke-linejoin="round" stroke-miterlimit="10" d="M159.43 200.5l7.99-7.99-7.99-7.98"/></g><g><path class="st1" d="M58.24 179.81h-5.3v3.87h4.93v1.27h-4.93v4.82h-1.35v-11.25h6.65v1.29zM62.03 189.77v-11.25h1.35v11.25h-1.35zM76.03 178.52h1.33v11.25h-1.22l-6.62-8.87v8.87h-1.33v-11.25h1.21l6.64 8.88v-8.88zM86.02 178.52c3.44 0 5.65 2.2 5.65 5.62s-2.22 5.62-5.65 5.62h-3.86v-11.25h3.86zm-.08 9.96c2.73 0 4.37-1.62 4.37-4.34 0-2.72-1.64-4.34-4.37-4.34h-2.43v8.68h2.43zM100.15 184.15c0-3.41 2.39-5.82 5.72-5.82s5.72 2.43 5.72 5.82-2.39 5.82-5.72 5.82c-3.34-.01-5.72-2.42-5.72-5.82zm10.08 0c0-2.65-1.8-4.51-4.35-4.51s-4.35 1.88-4.35 4.51c0 2.65 1.8 4.51 4.35 4.51s4.35-1.86 4.35-4.51zM115.53 185.42v-6.89h1.35v6.83c0 2.12 1.16 3.31 3.1 3.31s3.12-1.19 3.12-3.31v-6.83h1.33v6.89c0 2.8-1.8 4.55-4.45 4.55-2.64-.01-4.45-1.76-4.45-4.55zM136.57 178.52v1.29h-3.63v9.96h-1.35v-9.96h-3.63v-1.29h8.61zM95.19 194.59h1.19v11.25h-1.33v-8.96l-3.84 5h-.71l-3.82-4.98v8.95h-1.35V194.6h1.19l4.34 5.69 4.33-5.7zM100.46 200.21c0-3.41 2.39-5.82 5.72-5.82 3.33 0 5.72 2.43 5.72 5.82s-2.39 5.82-5.72 5.82c-3.34 0-5.72-2.41-5.72-5.82zm10.07 0c0-2.65-1.8-4.51-4.35-4.51s-4.35 1.88-4.35 4.51c0 2.65 1.8 4.51 4.35 4.51s4.35-1.86 4.35-4.51zM122.92 205.83l-2.73-4.18h-2.86v4.18h-1.35v-11.25h4.4c2.27 0 3.77 1.51 3.77 3.54 0 1.65-1 2.96-2.57 3.37l2.86 4.34h-1.52zm-2.57-9.97h-3.05v4.58h3.05c1.54 0 2.46-.88 2.46-2.28-.01-1.42-.92-2.3-2.46-2.3zM129.66 204.56h5.8v1.27h-7.15v-11.25h6.94v1.25h-5.59v3.66h5.17v1.22h-5.17v3.85z"/></g></svg>