<svg version="1.1" id="Layer_1" xmlns="http://www.w3.org/2000/svg" x="0" y="0" viewBox="0 0 107.7 147.3" xml:space="preserve"><style>.st1{fill:#662480}</style><path d="M24.6 22.7c.6 0 1.2-.3 1.5-.8.3-.5.4-1.1.2-1.7-.5-1.4-.7-2.8-.7-4.2 0-6.8 5.5-12.3 12.4-12.3 5.1 0 9.8 3.2 11.6 8 .2.5.6.9 1.1 1.1.5.2 1.1.1 1.6-.2 2.3-1.4 5-2.1 7.7-2.1 5.6 0 10.8 3.1 13.3 8.1.4.7 1.1 1.1 1.9 1 .6-.1 1.1-.1 1.6-.1 6.5 0 13.1 4.7 13.6 13.7h-28c.2-2.9 1.3-8.4 6.6-10.4.9-.4 1.4-1.4 1.1-2.4-.4-.9-1.4-1.4-2.4-1.1-6.2 2.4-8.6 8.5-8.9 13.8H13.4c.4-5.7 5.2-10.4 11.2-10.4z" fill="#fde1bd"/><path class="st1" d="M51.1 16.3c-1-.2-2 .5-2.1 1.5-.8 4.7-4.9 8.1-9.7 8.1-1 0-1.8.8-1.8 1.8s.8 1.8 1.8 1.8c6.6 0 12.2-4.7 13.3-11.1.2-.9-.5-1.9-1.5-2.1z"/><path class="st1" d="M103.7 45c-.1.3-.4.6-.7.6H4.5c-.4 0-.8-.4-.8-.8v-7.1c0-.4.4-.8.8-.8h92c-.5-1.2-.9-2.4-1.1-3.7h-1.3c-.6-11.3-9.2-17.4-17.3-17.4h-.9c-3.4-5.6-9.4-9-16-9-2.7 0-5.3.6-7.8 1.7C49.3 3.4 43.9 0 37.9 0c-8.8 0-16 7.2-16 16 0 1.1.1 2.1.3 3.2-6.9 1.1-12.2 7-12.5 14.1H4.5c-2.5 0-4.5 2-4.5 4.5v7.1c0 2.2 1.6 4 3.7 4.4l5.9 82.2c-2 .4-3.5 2.2-3.5 4.4v7.1c0 2.5 2 4.5 4.5 4.5H97c2.5 0 4.5-2 4.5-4.5v-7.1c0-2.1-1.5-3.9-3.5-4.4l5.9-82.2c1.5-.3 2.8-1.3 3.3-2.7-1.3-.5-2.4-1-3.5-1.6zM24.6 22.7c.6 0 1.2-.3 1.5-.8.3-.5.4-1.1.2-1.7-.5-1.4-.7-2.8-.7-4.2 0-6.8 5.5-12.3 12.4-12.3 5.1 0 9.8 3.2 11.6 8 .2.5.6.9 1.1 1.1.5.2 1.1.1 1.6-.2 2.3-1.4 5-2.1 7.7-2.1 5.6 0 10.8 3.1 13.3 8.1.4.7 1.1 1.1 1.9 1 .6-.1 1.1-.1 1.6-.1 6.5 0 13.1 4.7 13.6 13.7h-28c.2-2.9 1.3-8.4 6.6-10.4.9-.4 1.4-1.4 1.1-2.4-.4-.9-1.4-1.4-2.4-1.1-6.2 2.4-8.6 8.5-8.9 13.8H13.4c.4-5.7 5.2-10.4 11.2-10.4zm73.1 120.1c0 .4-.4.8-.8.8H10.5c-.4 0-.8-.4-.8-.8v-7.1c0-.4.4-.8.8-.8h86.4c.4 0 .8.4.8.8v7.1zm-3.5-11.5H13.3l-5.9-82H100l-5.8 82z"/><path d="M90.7 35h8.8c3.5 0 6.4 1.4 6.4 3v6.3c0 1.7-2.9 3-6.4 3h-9.1" fill="none" stroke="#662480" stroke-width="3.75" stroke-linejoin="round" stroke-miterlimit="10"/></svg>