<svg xmlns="http://www.w3.org/2000/svg" viewBox="0 0 28 28"><path d="M26.13 5.76h-5.94l1.56-1.56c.4-.4.62-.96.62-1.56s-.22-1.12-.65-1.56c-.4-.4-.96-.62-1.52-.62s-1.12.22-1.56.62L14.6 5.12V1.09c0-.34-.28-.62-.62-.62-.34 0-.62.28-.62.62v4.08L9.3 1.12c-.84-.84-2.24-.84-3.08 0s-.84 2.24 0 3.08l1.56 1.56H1.87C.84 5.76 0 6.6 0 7.62v2.49c0 1.03.84 1.87 1.87 1.87v13.07c0 1.37 1.12 2.49 2.49 2.49h19.29c1.37 0 2.49-1.12 2.49-2.49V11.98c1.03 0 1.87-.84 1.87-1.87V7.62a1.887 1.887 0 00-1.88-1.86zm-6.59-3.77c.19-.19.4-.28.65-.28s.47.09.68.28c.19.19.28.4.28.65s-.09.5-.28.65l-2.43 2.43h-2.68l3.78-3.73zM7.12 3.33a.948.948 0 01.66-1.62c.25 0 .47.09.65.28l3.76 3.76H9.52l-2.4-2.42zm3.77 22.96H4.36c-.68 0-1.24-.56-1.24-1.24v-5.29h7.78v6.53zm0-7.78H3.11v-6.53h7.78v6.53zm0-7.78H1.87c-.34 0-.62-.28-.62-.62V7.62A.61.61 0 011.87 7h9.02v3.73zm4.98 15.56h-3.73V7h3.73v19.29zm9.02-1.25c0 .68-.56 1.24-1.24 1.24h-6.53v-6.53h7.78v5.29zm0-6.53h-7.78v-6.53h7.78v6.53zm1.87-8.4c0 .34-.28.62-.62.62h-9.02V7h9.02c.34 0 .62.28.62.62v2.49z" fill="#fff"/></svg>