<svg version="1.1" id="Layer_1" xmlns="http://www.w3.org/2000/svg" x="0" y="0" viewBox="0 0 130 130" xml:space="preserve"><style>.st0{fill:#96d3a0}.st2{fill:#662480}</style><circle class="st0" cx="65" cy="65" r="65"/><path class="st0" d="M61.77 23.24c-.02-.48 0-.97.07-1.45.46-3.51 3.06-6.37 6.38-6.96.01 0 1.05-.27 2.41 0 3.84.77 6.42 4.02 6.42 8.08 0 .18-.01.36-.02.54-.1 1.54.34 3.01 1.23 4.15 1.96 2.52 2.89 5.73 2.61 9.02-.51 5.97-5.12 10.75-10.72 11.12-3.24.22-6.31-.97-8.65-3.35a15.02 15.02 0 001.9-4.08c.8-2.71.79-5.23-.05-7.27-.74-1.81-2.1-3.14-3.85-3.79.24-.44.51-.88.8-1.29 1-1.41 1.53-3.09 1.47-4.72z"/><path d="M42.58 33.43c.69-1.67 1.98-2.86 3.65-3.36 2.07-.61 4.22 0 5.9 1.67a.508.508 0 00.72 0c1.68-1.68 3.83-2.29 5.9-1.67 1.67.49 2.96 1.69 3.65 3.36.75 1.83.76 4.11.02 6.59-1.54 5.17-5.52 8.57-8.87 7.57-.27-.08-.55-.2-.81-.34a.542.542 0 00-.5 0c-.26.14-.53.26-.81.34-3.36.99-7.34-2.4-8.87-7.57-.74-2.48-.73-4.76.02-6.59z" fill="#ff8061"/><path class="st2" d="M51.72 48.57c.26-.08.51-.18.76-.3.25.12.5.22.76.3.48.14.97.21 1.47.21 2.18 0 4.43-1.34 6.17-3.55 2.32 2.29 5.38 3.56 8.54 3.56.26 0 .52-.01.79-.03 6.1-.41 11.12-5.59 11.67-12.05.3-3.55-.7-7.01-2.82-9.74-.74-.95-1.1-2.17-1.02-3.46.01-.2.02-.4.02-.6 0-3.39-1.61-6.27-4.21-7.89.7-.1 1.39-.31 2.02-.7 2.57-1.59 3.05-5.29 3.07-5.45a.514.514 0 00-.34-.55c-.15-.05-3.68-1.27-6.25.31-1.27.78-2.02 2.07-2.53 3.32-.48-2.23-1.56-3.81-1.62-3.9a.513.513 0 00-.71-.13c-.23.16-.29.48-.13.71.02.02 1.54 2.25 1.66 5.05-.64.03-1.04.13-1.04.13-3.71.66-6.66 3.88-7.17 7.83-.07.54-.09 1.08-.07 1.62.05 1.4-.41 2.85-1.29 4.08-.36.5-.69 1.04-.98 1.59-1.91-.4-3.84.07-5.48 1.31v-2.45c.99.09 3.37.13 4.79-1.3 1.79-1.79 1.27-5.1 1.24-5.24a.499.499 0 00-.42-.42c-.14-.02-3.44-.55-5.24 1.24-.93.93-1.24 2.25-1.34 3.46-.26-.64-.6-1.3-1.02-1.93a.515.515 0 00-.71-.14c-.23.16-.3.48-.14.71 1.49 2.21 1.79 4.95 1.81 5.15v.91c-1.8-1.36-3.95-1.79-6.04-1.17-1.97.58-3.5 1.99-4.3 3.95-.84 2.05-.86 4.56-.05 7.27 1.7 5.74 6.25 9.45 10.15 8.29zm2.38-25.75c1.11-1.11 3.13-1.07 3.97-1 .07.84.11 2.85-1 3.97-1.16 1.16-3.3 1.07-4.06.99.01-1.28.11-2.98 1.09-3.96zm18.8-13.3c1.69-1.04 4.02-.59 4.96-.34-.2.95-.83 3.24-2.52 4.28-1.66 1.03-4.04.51-5.03.22.45-1.42 1.14-3.26 2.59-4.16zM61.77 23.24c-.02-.48 0-.97.07-1.45.46-3.51 3.06-6.37 6.38-6.96.01 0 1.05-.27 2.41 0 3.84.77 6.42 4.02 6.42 8.08 0 .18-.01.36-.02.54-.1 1.54.34 3.01 1.23 4.15 1.96 2.52 2.89 5.73 2.61 9.02-.51 5.97-5.12 10.75-10.72 11.12-3.24.22-6.31-.97-8.65-3.35a15.02 15.02 0 001.9-4.08c.8-2.71.79-5.23-.05-7.27-.74-1.81-2.1-3.14-3.85-3.79.24-.44.51-.88.8-1.29 1-1.41 1.53-3.09 1.47-4.72zM42.58 33.43c.69-1.67 1.98-2.86 3.65-3.36 2.07-.61 4.22 0 5.9 1.67a.508.508 0 00.72 0c1.68-1.68 3.83-2.29 5.9-1.67 1.67.49 2.96 1.69 3.65 3.36.75 1.83.76 4.11.02 6.59-1.54 5.17-5.52 8.57-8.87 7.57-.27-.08-.55-.2-.81-.34a.542.542 0 00-.5 0c-.26.14-.53.26-.81.34-3.36.99-7.34-2.4-8.87-7.57-.74-2.48-.73-4.76.02-6.59z"/><path class="st2" d="M56.96 33.93c.66.19 1.18.61 1.51 1.22.46.85.51 2.02.13 3.28-.08.27.07.56.34.64a.513.513 0 00.64-.34c.46-1.53.39-2.97-.21-4.06a3.452 3.452 0 00-2.12-1.71.505.505 0 00-.63.35c-.09.26.07.54.34.62zM70.91 19.05c1.17.73 1.98 2.02 2.17 3.43.03.26.25.45.51.45h.07c.28-.04.48-.29.44-.57-.22-1.72-1.21-3.28-2.64-4.17a.516.516 0 00-.71.16c-.15.23-.07.55.16.7z"/><g><circle cx="88.52" cy="104.28" r="10.35" fill="#9380be"/><path fill="none" stroke="#fff" stroke-width="3" stroke-linecap="round" stroke-linejoin="round" stroke-miterlimit="10" d="M86.36 108.61l4.33-4.33-4.33-4.33"/></g><g><path class="st2" d="M31.55 97.39h-2.87v2.1h2.67v.69h-2.67v2.61h-.73V96.7h3.6v.69zM33.6 102.79V96.7h.73v6.09h-.73zM41.18 96.7h.72v6.09h-.66l-3.59-4.81v4.81h-.72V96.7h.65l3.59 4.81V96.7zM46.59 96.7c1.86 0 3.06 1.19 3.06 3.05 0 1.85-1.2 3.05-3.06 3.05H44.5v-6.1h2.09zm-.04 5.4c1.48 0 2.37-.88 2.37-2.35 0-1.47-.89-2.35-2.37-2.35h-1.31v4.7h1.31zM54.25 99.74c0-1.85 1.3-3.15 3.1-3.15s3.1 1.31 3.1 3.15c0 1.84-1.3 3.15-3.1 3.15-1.81.01-3.1-1.3-3.1-3.15zm5.46 0c0-1.44-.97-2.45-2.36-2.45s-2.36 1.02-2.36 2.45c0 1.44.97 2.45 2.36 2.45s2.36-1.01 2.36-2.45zM62.58 100.43V96.7h.73v3.7c0 1.15.63 1.79 1.68 1.79 1.05 0 1.69-.64 1.69-1.79v-3.7h.72v3.74c0 1.51-.97 2.46-2.41 2.46-1.43 0-2.41-.95-2.41-2.47zM73.98 96.7v.7h-1.97v5.4h-.73v-5.4h-1.97v-.7h4.67zM51.56 105.4h.64v6.09h-.72v-4.86l-2.08 2.71h-.38l-2.07-2.7v4.85h-.73v-6.09h.64l2.35 3.08 2.35-3.08zM54.41 108.45c0-1.84 1.3-3.15 3.1-3.15s3.1 1.31 3.1 3.15c0 1.84-1.3 3.15-3.1 3.15-1.81 0-3.1-1.31-3.1-3.15zm5.46 0c0-1.44-.97-2.45-2.36-2.45s-2.36 1.02-2.36 2.45c0 1.44.97 2.45 2.36 2.45s2.36-1.02 2.36-2.45zM66.58 111.49l-1.48-2.26h-1.55v2.26h-.73v-6.09h2.39c1.23 0 2.05.82 2.05 1.92 0 .9-.54 1.6-1.39 1.83l1.55 2.35h-.84zm-1.39-5.4h-1.65v2.48h1.65c.84 0 1.33-.48 1.33-1.24s-.5-1.24-1.33-1.24zM70.23 110.81h3.14v.69H69.5v-6.09h3.76v.68h-3.03v1.99h2.8v.66h-2.8v2.07z"/></g></svg>