<svg version="1.1" id="Layer_1" xmlns="http://www.w3.org/2000/svg" x="0" y="0" viewBox="0 0 154.2 154.2" xml:space="preserve"><style>.st0{fill:#662480}</style><path class="st0" d="M72.8 154.2c40.1 0 72.8-32.7 72.8-72.8 0-14.3-4.1-28-11.9-39.9l16.2-16.2c2.8-2.8 4.3-6.5 4.3-10.5s-1.5-7.7-4.3-10.5S143.4 0 139.4 0s-7.7 1.5-10.5 4.3l-16.2 16.2c-11.9-7.8-25.7-12-40-12C32.7 8.5 0 41.2 0 81.4s32.7 72.8 72.8 72.8zm12.3-85c9.2 9.2 9.2 24 0 33.2l-8.3 8.3c-4.4 4.4-10.3 6.9-16.6 6.9s-12.2-2.4-16.6-6.9-6.9-10.3-6.9-16.6c0-6.3 2.4-12.2 6.9-16.6l8.3-8.3c4.4-4.4 10.3-6.9 16.6-6.9 6.2 0 12.1 2.4 16.6 6.9zm2.7-2.8C86.5 65.1 85 64 83.5 63l16.8-16.8c.7 1.7 1.7 3.2 3.1 4.6 1.4 1.4 2.9 2.4 4.6 3.1L91.3 70.7c-1-1.5-2.2-2.9-3.5-4.3zm-15-54c13.3 0 26.1 3.8 37.2 10.9l-6.5 6.5c-3.3 3.3-4.7 7.7-4.2 12L80 61c-10.1-4.7-22.5-2.9-30.9 5.4l-8.3 8.3c-10.7 10.7-10.7 28 0 38.6 5.2 5.2 12 8 19.3 8 7.3 0 14.2-2.8 19.3-8l8.3-8.3c8.3-8.3 10.1-20.8 5.4-30.9L112.4 55c.5.1 1 .1 1.5.1 3.8 0 7.6-1.4 10.5-4.3l6.5-6.5c7.1 11.1 10.9 23.8 10.9 37.1 0 38-30.9 69-69 69-38 0-69-30.9-69-69s31-69 69-69z"/><path class="st0" d="M111.1 120.7c.5 0 1-.2 1.4-.6 2.1-2.1 4-4.4 5.7-6.8 6.6-9.4 10.1-20.4 10.1-31.9 0-5.7-.9-11.3-2.6-16.7-.3-1-1.4-1.6-2.4-1.3-1 .3-1.6 1.4-1.3 2.4 1.6 5 2.4 10.2 2.4 15.5 0 10.7-3.2 21-9.4 29.7-1.6 2.2-3.4 4.4-5.3 6.3-.7.8-.7 2 0 2.7.4.5.9.7 1.4.7zM72.8 136.8c10.5 0 20.7-2.9 29.5-8.5.9-.6 1.2-1.8.6-2.7-.6-.9-1.8-1.2-2.7-.6-8.2 5.2-17.7 7.9-27.5 7.9-1.1 0-1.9.9-1.9 1.9.1 1.1.9 2 2 2zM37.3 43.3c.5 0 .9-.2 1.3-.5 9.4-8.4 21.6-13 34.2-13 2.7 0 5.4.2 8 .6 1.1.2 2-.6 2.2-1.6.2-1.1-.6-2-1.6-2.2-2.8-.4-5.7-.7-8.6-.7-13.6.1-26.6 5-36.8 14-.8.7-.9 1.9-.2 2.7.5.4 1 .7 1.5.7z"/><path d="M131.7 7.1c2.1-2.1 4.8-3.2 7.7-3.2 2.9 0 5.7 1.1 7.7 3.2 2.1 2.1 3.2 4.8 3.2 7.7s-1.1 5.7-3.2 7.7L121.7 48c-4.3 4.3-11.2 4.3-15.5 0-4.3-4.3-4.3-11.2 0-15.5l25.5-25.4z" fill="#f88cc4"/><path d="M85.1 69.2c9.2 9.2 9.2 24 0 33.2l-8.3 8.3c-4.4 4.4-10.3 6.9-16.6 6.9s-12.2-2.4-16.6-6.9-6.9-10.3-6.9-16.6c0-6.3 2.4-12.2 6.9-16.6l8.3-8.3c4.4-4.4 10.3-6.9 16.6-6.9 6.2 0 12.1 2.4 16.6 6.9z" fill="#92a4ed"/></svg>