<svg version="1.1" id="Layer_1" xmlns="http://www.w3.org/2000/svg" x="0" y="0" viewBox="0 0 149 149" xml:space="preserve"><style>.st1{fill:#662480}</style><path d="M101.3 15.9l8.8 8.8c23.5 23.5 23.5 61.7-.2 85.3-11.3 11.3-26.5 17.7-42.8 17.7-16.1 0-31.2-6.4-42.8-17.7l-8.8-8.8 85.8-85.3z" fill="#ff815c"/><path class="st1" d="M69 149c20.5 0 41-7.8 56.5-23.5 31.2-31.2 31.2-82 0-113.2L113.6.6c-.8-.8-2-.8-2.8 0L.6 111c-.4.4-.6.8-.6 1.4 0 .6.2 1 .6 1.4l11.9 11.7C28.1 141.2 48.5 149 69 149zm32.3-133.1l8.8 8.8c23.5 23.5 23.5 61.7-.2 85.3-11.3 11.3-26.5 17.7-42.8 17.7-16.1 0-31.2-6.4-42.8-17.7l-8.8-8.8 85.8-85.3zM12.9 104l8.8 8.8c12.1 12.1 28.2 18.9 45.6 18.9 17.1 0 33.4-6.8 45.6-18.9 25.1-25.1 25.1-65.8 0-90.9l-8.8-8.8 8.4-8.4L122.8 15c29.6 29.6 29.6 78 0 107.6s-78 29.6-107.6 0L4.8 112.4l8.1-8.4z"/><path class="st1" d="M101.5 104.2c.8 0 1.6-.4 2.2-1 1.2-1.2 1.2-3.2 0-4.6-1-1-4-1.4-5-1.6-.4 0-.6 0-.8.2-.2.4-.2.6-.2 1 .2 1 .6 4 1.6 5 .6.6 1.4 1 2.2 1zM88.1 84.9c.8 0 1.6-.4 2.2-1 .6-.6 1-1.4 1-2.2 0-.8-.4-1.6-1-2.2-1-1-4-1.4-5-1.6-.4 0-.6 0-.8.2s-.4.6-.2.8c.2 1 .6 4 1.6 5 .6.8 1.4 1 2.2 1zM113.2 66.8c.8 0 1.6-.4 2.2-1 .6-.6 1-1.4 1-2.2 0-.8-.4-1.6-1-2.2-1-1-4-1.4-5-1.6-.2 0-.6 0-.8.2-.2.2-.4.6-.2.8.2 1 .6 4 1.6 5 .6.6 1.4 1 2.2 1zM69 70.6c.8 0 1.6-.4 2.2-1s1-1.4 1-2.2c0-.8-.4-1.6-1-2.2-1-1-4-1.4-5-1.6-.4 0-.6 0-.8.2-.2.2-.4.6-.2.8.2 1 .6 4 1.6 5 .6.8 1.4 1 2.2 1zM65.8 95.9c.8 0 1.6-.4 2.2-1 1.2-1.2 1.2-3.2 0-4.6-1-1-4-1.4-5-1.6-.4 0-.6 0-.8.2-.2.2-.4.6-.2.8.2 1 .6 4 1.6 5 .7.8 1.5 1.2 2.2 1.2zM65.6 117.8c.8 0 1.6-.4 2.2-1s1-1.4 1-2.2c0-.8-.4-1.6-1-2.2-1-1-4-1.4-5-1.6-.4 0-.6 0-.8.2-.2.2-.4.6-.2.8.2 1 .6 4 1.6 5 .5.6 1.3 1 2.2 1zM39.6 100.1c.8 0 1.6-.4 2.2-1 .6-.6 1-1.4 1-2.2 0-.8-.4-1.6-1-2.2-1-1-4-1.4-5-1.6-.4 0-.6 0-.8.2-.2.2-.4.6-.2.8.2 1 .6 4 1.6 5 .6.6 1.4 1 2.2 1zM103.2 37c.8 0 1.6-.4 2.2-1 1.2-1.2 1.2-3.2 0-4.6-1-1-4-1.4-5-1.6-.4 0-.6 0-.8.2-.2.2-.4.6-.2.8.2 1 .6 4 1.6 5 .7.8 1.5 1.2 2.2 1.2zM93.5 58.3c.8 0 1.6-.4 2.2-1s1-1.4 1-2.2c0-.8-.4-1.6-1-2.2-1-1-4-1.4-5-1.6-.2 0-.6 0-.8.2-.2.2-.2.6-.2.8.2 1 .6 4 1.6 5 .6.6 1.4 1 2.2 1z"/></svg>