<svg version="1.1" id="Layer_1" xmlns="http://www.w3.org/2000/svg" x="0" y="0" viewBox="0 0 30 20" xml:space="preserve"><style>.st0{fill:#662480}</style><path class="st0" d="M9.5 19.6c.1.1.3.2.5.2s.3-.1.5-.2L29.6 1.3c.3-.3.3-.7 0-.9-.3-.3-.7-.3-.9 0L10 18.2 1.4 10c-.3-.3-.7-.3-.9 0s-.3.7 0 .9l9 8.7z"/><path class="st0" d="M10 20c-.2 0-.5-.1-.6-.3L.3 11c-.2-.1-.3-.3-.3-.6s.1-.4.3-.6c.3-.3.9-.3 1.3 0l8.5 8.1L28.5.3c.4-.3.9-.3 1.3 0s.4.9 0 1.2L10.6 19.7c-.1.2-.4.3-.6.3zM.9 10c-.1 0-.2 0-.3.1-.1.1-.1.2-.1.3 0 .1 0 .2.1.3l9.1 8.7c.2.2.4.2.6 0L29.4 1.2c.2-.2.2-.4 0-.6-.2-.2-.4-.2-.6 0L10 18.6l-8.8-8.4c-.1-.1-.2-.2-.3-.2z"/></svg>