<svg version="1.1" id="Layer_1" xmlns="http://www.w3.org/2000/svg" x="0" y="0" viewBox="0 0 65.2 160.3" xml:space="preserve"><style>.st0{fill:#662480}.st1{fill:#fde1bd}</style><path class="st0" d="M7.3 40v7.3c-4.1.5-7.3 4-7.3 8.3v96.3c0 4.7 3.8 8.4 8.4 8.4h48.3c4.7 0 8.4-3.8 8.4-8.4V55.6c0-4.3-3.2-7.7-7.3-8.3V40c0-3.2-2.6-5.8-5.8-5.8h-2.4c0-.1.1-.2.1-.3 0-5.5-2.6-10.6-7-13.8v-10C42.7 4.5 38.1 0 32.6 0S22.5 4.5 22.5 10.1v10c-4.4 3.2-7 8.3-7 13.8 0 .1 0 .2.1.3h-2.4c-3.3-.1-5.9 2.5-5.9 5.8zm49.4 116.3H8.4c-2.4 0-4.4-2-4.4-4.4V68.4h57.2v83.4c0 2.5-2 4.5-4.5 4.5z"/><path class="st0" d="M38.8 123.5H26.4c-1.1 0-2 .9-2 2s.9 2 2 2h12.4c1.1 0 2-.9 2-2s-.9-2-2-2zM38.8 138.3H26.4c-1.1 0-2 .9-2 2s.9 2 2 2h12.4c1.1 0 2-.9 2-2s-.9-2-2-2zM38.8 93.9H26.4c-1.1 0-2 .9-2 2s.9 2 2 2h12.4c1.1 0 2-.9 2-2s-.9-2-2-2zM38.8 108.7H26.4c-1.1 0-2 .9-2 2s.9 2 2 2h12.4c1.1 0 2-.9 2-2s-.9-2-2-2zM38.8 79.1H26.4c-1.1 0-2 .9-2 2s.9 2 2 2h12.4c1.1 0 2-.9 2-2s-.9-2-2-2z"/><path class="st1" d="M61.2 55.6v8.9H4v-8.9c0-2.4 2-4.4 4.4-4.4h48.3c2.5-.1 4.5 1.9 4.5 4.4zM53.9 40v7.2H11.3V40c0-1 .8-1.8 1.8-1.8h39c1-.1 1.8.8 1.8 1.8zM19.5 33.9c0-4.5 2.3-8.6 6.1-11 .6-.4.9-1 .9-1.7v-11c0-3.3 2.7-6.1 6.1-6.1s6.1 2.7 6.1 6.1v11c0 .7.4 1.3.9 1.7 3.8 2.4 6.1 6.6 6.1 11 0 .1 0 .2.1.3H19.4c0-.2.1-.2.1-.3z"/></svg>