<svg xmlns="http://www.w3.org/2000/svg" viewBox="0 0 288.88 58.8"><path d="M.44 35.2c2.65.32 4.39-.05 4.99-2.3L12.5 6.07c.58-2.2-.76-3.37-3.22-4.4L9.7 0l11.1 2.92 5.49 28.55L44.48 9.16l10.98 2.89-.44 1.66c-2.64-.32-4.15.11-4.73 2.31l-7.07 26.83c-.59 2.26.51 3.37 2.97 4.4l-.44 1.66L30.92 45l.44-1.66c2.64.32 4.15-.11 4.75-2.37l6.78-25.76-19.83 24.23-2.14-.56-6.06-31.24-6.83 25.94c-.59 2.26.75 3.43 3.2 4.46l-.43 1.66L0 36.86l.44-1.66zm47.86 7.24c.83-4.84 5.3-7.31 18.05-6.8 1.42.06 1.98-.28 2.23-1.73l.19-1.09c.75-4.36-.47-7.05-4.28-7.71-3.33-.57-4.83.91-5.29 3.58-.41 2.36-2.16 3.18-4.04 2.85-2-.34-2.86-1.86-2.55-3.62.8-4.66 7.69-5.59 13.98-4.51 7.08 1.22 9.55 4.57 8.22 12.31l-2.13 12.4c-.36 2.12.68 2.92 2.51 2.8l-.16.91c-.96 1.27-2.94 1.55-4.76 1.24-2.96-.51-4.3-2.54-4.05-5.06.12-.66-.35-.87-.95-.29-2.33 1.96-6.07 3.44-10.19 2.73-4.11-.7-7.59-3.29-6.78-8.01m18.93-.67l.34-1.99c.24-1.39-.06-2.19-2.09-2.35-7.7-.51-9.92 2.28-10.36 4.82-.41 2.36.69 4.67 3.96 5.23 3.94.66 7.46-1.72 8.15-5.71m48.76 11l1.05-11.62c.41-4.58-1-8.04-4.73-8.38-3.67-.33-6.17 2.77-6.58 7.36l-1 11.13c-.23 2.57.74 3.46 3.46 4.01l-.15 1.65-14.06-1.27.14-1.65c2.84-.05 3.95-.75 4.18-3.32l1-11.13c.41-4.58-1-8.04-4.67-8.37-3.67-.33-6.23 2.77-6.64 7.35l-1 11.13c-.23 2.57.74 3.46 3.52 4.01l-.15 1.65-14.18-1.28.15-1.65c2.9-.05 4.01-.75 4.24-3.31L82.03 33c.25-2.75-.59-3.75-3.61-3.72l.15-1.65 8.03-.88c1.62-.16 2.41.65 2.28 2.12-.2 2.2.54 2.95 1.47 2.11 1.21-1.12 3.66-3.74 8.25-3.32 2.57.23 5.24 1.34 6.65 4.17.57 1.22 1.58 1.62 2.33.83 1.69-1.7 4.1-3.82 8.38-3.43 4.46.4 8.34 3.22 7.62 11.23l-1.16 12.84c-.19 2.14.91 2.85 2.72 2.59l-.08.92c-.92 1.33-2.87 1.77-4.65 1.62-2.81-.28-4.74-2.06-4.42-5.66m10.34-1.06c.06-4.91 4.09-8.05 16.75-9.55 1.41-.17 1.91-.59 1.93-2.06l.01-1.1c.06-4.42-1.57-6.89-5.44-6.94-3.38-.04-4.62 1.66-4.66 4.36-.03 2.39-1.64 3.48-3.54 3.45-2.02-.03-3.11-1.39-3.09-3.17.06-4.73 6.71-6.73 13.1-6.65 7.18.09 10.15 3.01 10.05 10.87l-.16 12.58c-.03 2.15 1.13 2.78 2.92 2.37l-.01.92c-.75 1.4-2.66 1.99-4.51 1.97-3.01-.04-4.64-1.84-4.79-4.36.01-.68-.48-.8-.98-.14-1.99 2.31-5.46 4.35-9.63 4.3-4.17-.05-8.01-2.06-7.95-6.85m18.58-3.63l.02-2.03c.02-1.41-.4-2.15-2.43-1.99-7.68.7-9.44 3.81-9.47 6.39-.03 2.39 1.42 4.5 4.73 4.54 4 .04 7.1-2.86 7.15-6.91m49.84 3.29l-.77-11.64c-.3-4.59-2.24-7.79-5.97-7.54-3.68.24-5.66 3.69-5.36 8.29l.73 11.15c.17 2.57 1.26 3.3 4.04 3.43l.11 1.65-14.09.93-.11-1.65c2.8-.49 3.78-1.36 3.62-3.93l-.73-11.15c-.3-4.59-2.24-7.79-5.91-7.55-3.68.24-5.72 3.7-5.42 8.29l.73 11.15c.17 2.57 1.26 3.3 4.1 3.42l.11 1.65-14.21.93-.11-1.65c2.86-.5 3.85-1.36 3.68-3.93l-1.06-16.11c-.18-2.76-1.16-3.61-4.14-3.11l-.11-1.65 7.8-2.11c1.57-.41 2.48.27 2.57 1.74.15 2.2.99 2.83 1.78 1.85 1.02-1.3 3.04-4.26 7.63-4.56 2.57-.17 5.38.51 7.22 3.09.75 1.12 1.81 1.36 2.43.46 1.41-1.94 3.46-4.41 7.75-4.69 4.47-.29 8.73 1.89 9.26 9.91l.85 12.86c.14 2.14 1.34 2.68 3.09 2.13l.06.92c-.7 1.46-2.56 2.2-4.34 2.32-2.81.16-4.99-1.29-5.23-4.9m10.08-2.65c-.7-4.86 2.79-8.59 15.06-12.05 1.37-.38 1.8-.88 1.58-2.34l-.16-1.09c-.64-4.37-2.63-6.57-6.45-6.01-3.34.48-4.31 2.36-3.92 5.03.34 2.37-1.08 3.69-2.96 3.97-2 .29-3.29-.89-3.55-2.65-.68-4.68 5.58-7.69 11.9-8.61 7.11-1.03 10.5 1.39 11.63 9.17l1.8 12.45c.31 2.13 1.55 2.57 3.25 1.89l.13.91c-.53 1.5-2.32 2.38-4.14 2.65-2.98.43-4.87-1.09-5.41-3.56-.1-.67-.6-.72-.99.02-1.61 2.59-4.71 5.15-8.84 5.75-4.13.59-8.24-.79-8.93-5.53m17.8-6.49l-.29-2.01c-.2-1.4-.73-2.06-2.71-1.59-7.48 1.89-8.73 5.23-8.36 7.79.34 2.37 2.1 4.22 5.38 3.75 3.94-.57 6.56-3.93 5.98-7.94m8.33-4.54c-1.96-9.31 3.36-15.63 10.09-17.05 6.01-1.26 9.09 2.36 8.17-2.03l-1.04-4.93c-.57-2.7-1.66-3.42-4.54-2.5l-.34-1.62 7.43-3.13c1.5-.63 2.49-.08 2.81 1.42l6.85 32.56c.44 2.1 1.71 2.46 3.36 1.68l.19.9c-.43 1.53-2.17 2.53-3.85 2.88-1.98.42-3.96-.05-4.94-1.72-.49-.84-1.09-1.02-1.64-.91-1.56.33-2.67 4.58-8.14 5.73-6.12 1.27-12.61-2.75-14.41-11.28m21.96-1.48l-1.14-5.41c-1.5-7.15-6.53-8.98-10.07-8.23-4.33.91-5.93 5.51-4.73 11.22 1.43 6.79 6.03 11.65 11.19 10.57 2.76-.59 5.87-2.81 4.75-8.15m8.22-5.16c-2.6-9.09 2.9-15.77 10.27-17.88 6.08-1.74 11.18.25 12.53 4.97 1.25 4.37-2.11 6.47-9.26 8.91l-4.93 1.73c-1.34.45-1.46 1.37-.77 2.9 1.97 4.42 7.23 5.85 12.01 4.48 2.42-.69 5.01-2.13 6.35-5.26l1.54.71c-.51 2.45-3.4 7.29-9.84 9.13-7.37 2.11-15.38-.89-17.9-9.69m11.67-5.18c4.99-1.75 6.08-3.08 5.25-5.97-.9-3.13-3.24-5.52-7.07-4.42-4.07 1.16-5.27 5.02-4.36 9.29.46 2.29 1.22 2.72 2.68 2.23l3.5-1.13z"/></svg>