<svg version="1.1" id="Layer_1" xmlns="http://www.w3.org/2000/svg" x="0" y="0" viewBox="0 0 38 38" xml:space="preserve"><style>.st0{fill:#662480}</style><path class="st0" d="M5.11 22.92c.74-.1 1.18-.33 1.18-.98V14.2c0-.63-.45-.86-1.18-.96v-.48h3.21l3.51 7.32 3.32-7.32h3.17v.48c-.74.1-1.11.33-1.11.96v7.75c0 .65.38.87 1.11.98v.48h-4.29v-.48c.74-.1 1.11-.33 1.11-.98v-7.44l-3.63 7.95h-.61l-3.86-8v7.49c0 .65.45.87 1.18.98v.48H5.11v-.49z"/><path class="st0" d="M29.16 22.05v-3.26c0-1.29-.48-2.21-1.53-2.21-1.03 0-1.65.93-1.65 2.21v3.12c0 .72.29.94 1.06 1.03v.46H23.1v-.46c.79-.09 1.08-.31 1.08-1.03v-3.12c0-1.29-.48-2.21-1.51-2.21s-1.66.93-1.66 2.21v3.12c0 .72.29.94 1.08 1.03v.46h-3.98v-.46c.8-.09 1.1-.31 1.1-1.03V17.4c0-.77-.26-1.03-1.1-.94V16l2.21-.45c.45-.09.69.12.69.53 0 .62.22.81.46.55.31-.34.93-1.13 2.21-1.13.72 0 1.49.24 1.95.99.19.33.48.41.67.17.43-.51 1.05-1.17 2.24-1.17 1.25 0 2.4.69 2.4 2.93v3.6c0 .6.33.77.82.65v.26c-.22.39-.75.57-1.25.57-.77 0-1.35-.44-1.35-1.45"/><path class="st0" d="M19 .99C9.07.99.99 9.07.99 19c0 9.93 8.08 18.01 18.01 18.01S37.01 28.93 37.01 19C37.01 9.07 28.93.99 19 .99M19 38C8.52 38 0 29.48 0 19S8.52 0 19 0s19 8.52 19 19-8.52 19-19 19"/></svg>