<?xml version="1.0" standalone="no"?>
<!DOCTYPE svg PUBLIC "-//W3C//DTD SVG 20010904//EN"
 "http://www.w3.org/TR/2001/REC-SVG-20010904/DTD/svg10.dtd">
<svg version="1.0" xmlns="http://www.w3.org/2000/svg"
 width="700.000000pt" height="700.000000pt" viewBox="0 0 700.000000 700.000000"
 preserveAspectRatio="xMidYMid meet">
<metadata>
Created by potrace 1.11, written by Peter Selinger 2001-2013
</metadata>
<g transform="translate(0.000000,700.000000) scale(0.100000,-0.100000)"
fill="#000000" stroke="none">
<path d="M3278 6996 c-1 -2 -42 -6 -89 -10 -47 -4 -95 -8 -105 -10 -10 -2 -45
-7 -78 -11 -137 -16 -363 -66 -511 -112 -801 -249 -1468 -747 -1920 -1434
-214 -325 -389 -723 -471 -1069 -50 -214 -72 -345 -91 -550 -15 -162 -8 -592
11 -710 3 -14 7 -45 10 -70 15 -114 18 -137 26 -170 5 -19 12 -48 14 -65 53
-294 196 -677 374 -994 202 -362 464 -678 808 -976 63 -54 205 -159 304 -225
52 -34 107 -71 122 -81 15 -11 30 -19 33 -19 3 0 24 -12 47 -26 73 -46 312
-162 439 -213 266 -106 571 -187 809 -216 25 -3 56 -7 69 -10 136 -26 700 -26
839 0 16 3 104 15 147 20 61 8 206 40 322 70 454 121 863 322 1248 614 33 25
62 48 65 51 3 3 18 16 34 28 152 117 413 391 568 597 286 381 525 899 614
1330 16 77 54 301 60 350 4 33 9 76 11 95 8 70 10 547 2 610 -4 36 -11 97 -14
135 -4 39 -8 72 -10 75 -2 3 -6 30 -10 60 -3 30 -10 71 -15 90 -5 19 -12 51
-15 70 -3 19 -19 87 -35 150 -91 359 -242 701 -455 1035 -42 65 -190 269 -229
313 -13 15 -43 50 -66 77 -126 149 -359 369 -505 476 -33 24 -62 46 -65 50 -3
3 -41 30 -85 60 -430 295 -947 503 -1430 575 -27 4 -57 9 -65 10 -8 2 -44 6
-80 10 -36 3 -78 8 -95 11 -33 5 -531 13 -537 9z m527 -191 c65 -7 120 -14
170 -22 22 -3 49 -7 60 -9 276 -36 717 -182 990 -328 143 -76 178 -97 309
-184 617 -409 1079 -1013 1315 -1719 42 -127 98 -346 115 -448 41 -251 49
-341 50 -580 1 -200 -7 -331 -29 -475 -77 -521 -255 -982 -543 -1405 -48 -70
-176 -241 -192 -255 -3 -3 -33 -36 -66 -75 -208 -238 -465 -453 -764 -641
-354 -221 -846 -397 -1265 -450 -22 -3 -51 -7 -65 -10 -147 -24 -628 -24 -770
0 -14 2 -47 7 -75 10 -236 26 -601 128 -850 236 -60 26 -278 134 -320 158
-737 423 -1272 1078 -1532 1872 -30 93 -71 250 -102 395 -16 77 -41 256 -49
358 -13 176 -6 524 13 664 74 531 235 977 503 1393 453 704 1158 1215 1957
1420 161 41 228 55 405 80 41 6 118 14 170 17 52 3 96 7 98 8 5 5 413 -4 467
-10z"/>
<path d="M940 4607 l0 -43 71 -18 c81 -21 133 -63 143 -118 8 -43 7 -1472 -1
-1516 -10 -59 -95 -121 -168 -124 -30 -1 -45 -21 -45 -58 l0 -40 288 0 287 0
1 44 1 44 -41 6 c-55 9 -125 46 -150 80 -21 27 -21 38 -26 720 -3 381 -2 706
1 722 4 16 7 24 8 18 0 -6 46 -105 102 -220 56 -115 126 -261 156 -324 58
-120 132 -273 266 -550 43 -91 101 -210 127 -265 l47 -100 49 -2 c27 -2 54 1
61 5 7 4 59 111 117 237 57 127 115 256 130 288 14 31 37 81 50 110 13 28 38
82 55 120 61 131 128 279 261 572 66 145 60 212 60 -578 0 -782 3 -750 -63
-794 -17 -12 -56 -28 -85 -34 -28 -7 -52 -15 -53 -18 0 -3 -2 -23 -3 -43 l-2
-38 743 0 743 0 0 45 c0 44 -1 45 -32 45 -39 0 -107 30 -129 56 -35 41 -39 81
-38 429 0 260 4 358 15 404 41 176 146 276 289 274 140 -2 223 -81 265 -253
11 -41 14 -149 14 -425 0 -352 0 -372 -19 -405 -22 -39 -89 -77 -144 -83 -30
-3 -35 -7 -36 -33 -3 -57 -21 -54 369 -54 l362 0 -2 35 c-4 48 -7 51 -56 59
-58 9 -103 39 -123 83 -16 33 -18 75 -18 387 0 377 5 430 51 523 52 109 141
167 251 166 141 -2 227 -82 265 -244 12 -50 15 -143 16 -429 0 -201 3 -381 6
-400 20 -126 122 -203 261 -196 93 5 136 20 183 64 48 47 49 76 1 79 -56 3
-78 12 -97 40 -16 26 -18 60 -20 433 0 223 -4 425 -8 450 -39 256 -176 391
-410 403 -165 9 -292 -49 -424 -195 -23 -26 -43 -38 -61 -38 -33 1 -47 12 -93
75 -76 105 -191 157 -343 157 -149 0 -246 -42 -364 -159 -35 -35 -72 -63 -82
-63 -25 0 -40 31 -45 93 -11 132 -33 141 -248 98 -88 -18 -168 -34 -178 -36
-9 -2 -37 -7 -62 -10 l-46 -7 0 -44 0 -44 53 0 c63 0 94 -15 124 -58 l22 -33
0 -487 c0 -551 1 -541 -72 -583 -32 -18 -56 -23 -102 -23 -98 2 -165 43 -185
115 -6 20 -10 330 -10 785 l0 752 23 33 c23 36 91 75 142 83 17 2 32 5 35 5 3
1 6 21 7 46 l2 45 -293 0 -293 0 -13 -27 c-7 -16 -59 -131 -117 -258 -58 -126
-120 -263 -139 -303 -19 -41 -34 -76 -34 -78 0 -2 -22 -50 -48 -106 -26 -57
-95 -207 -152 -335 -58 -128 -107 -233 -110 -233 -3 0 -23 37 -44 83 -22 45
-75 156 -119 247 -43 91 -96 201 -117 245 -21 44 -72 151 -114 238 -135 279
-222 461 -237 495 l-14 32 -297 0 -298 0 0 -43z"/>
</g>
</svg>
